<svg width="245" height="50" viewBox="0 0 245 50" fill="none" xmlns="http://www.w3.org/2000/svg">
<path d="M19.544 45.184C19.544 47.7013 17.0907 48.96 12.184 48.96C11.1173 48.96 10.4773 48.4267 10.264 47.36C10.0933 46.2507 10.008 44.8853 10.008 43.264C10.008 41.6427 10.1147 39.9147 10.328 38.08C10.584 36.2027 10.904 34.176 11.288 32C12.0133 27.8187 13.0373 23.3173 14.36 18.496C15.7253 13.632 17.0693 9.87733 18.392 7.232C15.704 7.40267 13.0373 7.89333 10.392 8.704C7.74667 9.472 5.86933 10.0267 4.76 10.368C3.65067 10.6667 2.73333 10.816 2.008 10.816C1.28267 10.816 0.92 10.5813 0.92 10.112C0.92 9.55733 1.34667 8.74666 2.2 7.68C3.05333 6.57066 4.26933 5.46133 5.848 4.352C9.85867 1.62133 14.3173 0.234664 19.224 0.191998L40.28 0.383999C41.432 0.383999 42.008 0.831998 42.008 1.728C42.008 1.984 41.8373 2.45333 41.496 3.136C41.1547 3.776 40.856 4.48 40.6 5.248C40.0453 6.784 38.872 7.552 37.08 7.552C35.3307 7.552 31.128 7.424 24.472 7.168C24.3013 9.04533 23.96 11.456 23.448 14.4C22.936 17.3013 22.3813 20.48 21.784 23.936C20.3333 32.768 19.5867 39.8507 19.544 45.184ZM52.324 20.992C52.324 18.1333 54.5427 16.704 58.98 16.704C60.0893 16.704 60.772 17.0667 61.028 17.792C61.3267 18.5173 61.476 19.6267 61.476 21.12C61.476 23.2107 61.0067 26.4533 60.068 30.848C59.1293 35.2427 58.6813 38.208 58.724 39.744C58.724 40.4693 58.9587 40.832 59.428 40.832C60.068 40.832 60.8573 40.4267 61.796 39.616C62.7347 38.8053 63.6733 37.9307 64.612 36.992C65.5507 36.0107 66.404 35.1147 67.172 34.304C67.9827 33.4933 68.5373 33.088 68.836 33.088C69.4333 33.088 69.732 33.8133 69.732 35.264C69.732 38.2507 68.26 41.1307 65.316 43.904C60.3667 46.8053 57.2307 48.256 55.908 48.256C55.78 48.256 55.6733 48.2347 55.588 48.192C53.9667 48.192 52.8147 47.6587 52.132 46.592C51.492 45.5253 51.0867 44.1813 50.916 42.56C50.0627 44.1387 48.8893 45.504 47.396 46.656C45.9027 47.7653 44.196 48.32 42.276 48.32C38.9053 48.32 36.3027 47.68 34.468 46.4C32.676 45.12 31.78 43.2213 31.78 40.704C31.78 39.5947 31.9293 38.5707 32.228 37.632C32.5693 36.6933 33.1027 35.5413 33.828 34.176L35.684 18.432C37.0067 17.408 38.9053 16.896 41.38 16.896C43.3427 16.896 44.452 18.176 44.708 20.736C44.9213 22.8267 44.8147 24.704 44.388 26.368C44.004 27.9893 43.4707 30.0587 42.788 32.576C42.1053 35.0507 41.764 37.248 41.764 39.168C41.764 40.704 42.724 41.472 44.644 41.472C46.7347 41.472 48.548 39.6373 50.084 35.968C51.2787 33.152 52.0893 30.016 52.516 26.56C52.4733 26.2187 52.4307 25.792 52.388 25.28C52.388 24.7253 52.3667 24.192 52.324 23.68C52.324 23.168 52.324 22.656 52.324 22.144V20.992ZM75.057 16.064C76.593 16.064 78.0437 17.536 79.409 20.48C81.4143 18.3893 83.889 17.344 86.833 17.344C89.8197 17.344 92.0597 18.0053 93.553 19.328C95.0463 20.608 95.793 22.4427 95.793 24.832C95.793 27.1787 95.473 29.568 94.833 32C94.2357 34.432 93.7877 36.1813 93.489 37.248C93.233 38.272 93.105 39.1253 93.105 39.808C93.105 40.4907 93.3397 40.832 93.809 40.832C94.449 40.832 95.2383 40.4267 96.177 39.616C97.1157 38.8053 98.0543 37.9307 98.993 36.992C99.9317 36.0107 100.785 35.1147 101.553 34.304C102.364 33.4933 102.918 33.088 103.217 33.088C103.814 33.088 104.113 33.8133 104.113 35.264C104.113 38.2507 102.641 41.1307 99.697 43.904C94.7477 46.8053 91.5903 48.256 90.225 48.256C90.097 48.256 90.0117 48.2347 89.969 48.192C86.5557 48.192 84.849 45.4613 84.849 40C84.849 37.6533 85.0623 35.4987 85.489 33.536C85.9583 31.5733 86.2997 30.144 86.513 29.248C86.7263 28.352 86.833 27.4347 86.833 26.496C86.833 24.96 85.937 24.192 84.145 24.192C82.3957 24.192 80.7103 25.5147 79.089 28.16C77.5103 30.7627 76.4437 33.472 75.889 36.288V36.736C75.889 38.1867 76.1023 39.68 76.529 41.216C76.9983 42.752 77.233 43.8187 77.233 44.416C77.233 45.8667 75.4197 47.296 71.793 48.704C71.2383 48.9173 70.7477 49.024 70.321 49.024C69.2543 49.024 68.5077 48.4693 68.081 47.36C67.697 46.2507 67.505 44.5227 67.505 42.176C67.505 36.1173 67.7397 31.744 68.209 29.056C68.849 25.0453 70.2997 21.312 72.561 17.856C73.329 16.6613 74.161 16.064 75.057 16.064ZM115.832 41.024C119.16 41.024 122.381 39.7013 125.496 37.056C126.648 36.0747 127.587 35.1787 128.312 34.368C129.037 33.5147 129.592 33.088 129.976 33.088C130.573 33.088 130.872 33.6853 130.872 34.88C130.872 36.0747 130.552 37.4187 129.912 38.912C129.272 40.3627 128.205 41.792 126.712 43.2C123.043 46.656 118.008 48.384 111.608 48.384C106.531 48.384 103.075 46.5493 101.24 42.88C100.6 41.6 100.28 39.7653 100.28 37.376C100.28 34.9867 100.749 32.512 101.688 29.952C102.627 27.3493 103.864 25.1093 105.4 23.232C106.979 21.3547 108.792 19.904 110.84 18.88C112.888 17.8133 115.064 17.28 117.368 17.28C119.715 17.28 121.507 17.856 122.744 19.008C124.024 20.16 124.664 21.6533 124.664 23.488C124.664 25.3227 124.195 26.8373 123.256 28.032C122.36 29.184 121.187 30.1653 119.736 30.976C118.285 31.744 116.664 32.448 114.872 33.088C113.123 33.6853 111.395 34.368 109.688 35.136V36.736C109.731 38.272 110.371 39.36 111.608 40C112.845 40.64 114.253 40.9813 115.832 41.024ZM114.744 22.976C112.525 22.976 110.989 25.5573 110.136 30.72C111.032 30.1227 111.864 29.5893 112.632 29.12C113.443 28.6507 114.147 28.2027 114.744 27.776C116.024 26.8373 116.685 25.7707 116.728 24.576C116.728 23.5093 116.067 22.976 114.744 22.976ZM137.782 19.84C137.782 22.6987 137.27 25.9413 136.246 29.568C136.331 30.9333 136.374 32.256 136.374 33.536C136.374 34.816 136.459 35.9253 136.63 36.864C137.27 38.5707 138.081 39.616 139.062 40C139.915 40 140.854 39.2747 141.878 37.824C142.902 36.3307 143.947 34.56 145.014 32.512C144.502 30.5493 144.246 28.6933 144.246 26.944C144.246 23.872 144.715 21.632 145.654 20.224C146.806 18.432 148.555 17.536 150.902 17.536C153.249 17.536 154.806 18.432 155.574 20.224C155.873 20.9067 156.022 21.6747 156.022 22.528C156.022 24.064 155.638 25.6427 154.87 27.264C154.102 28.8427 152.865 30.9333 151.158 33.536C151.926 35.7973 153.078 36.928 154.614 36.928C156.491 36.8853 158.113 36.224 159.478 34.944C159.99 34.432 160.417 33.984 160.758 33.6C161.142 33.216 161.526 33.024 161.91 33.024C162.507 33.024 162.806 33.728 162.806 35.136C162.806 37.7813 162.038 39.7227 160.502 40.96C159.009 42.1547 157.11 42.752 154.806 42.752C151.777 42.752 149.366 41.4293 147.574 38.784C142.582 45.2693 138.401 48.512 135.03 48.512C133.707 48.512 132.406 46.6347 131.126 42.88C129.846 39.1253 128.865 34.048 128.182 27.648C127.67 23.5947 127.969 20.6933 129.078 18.944C130.017 17.5787 131.851 16.896 134.582 16.896C135.606 16.896 136.395 17.216 136.95 17.856C137.505 18.4533 137.782 19.1147 137.782 19.84ZM174.832 41.024C178.16 41.024 181.381 39.7013 184.496 37.056C185.648 36.0747 186.587 35.1787 187.312 34.368C188.037 33.5147 188.592 33.088 188.976 33.088C189.573 33.088 189.872 33.6853 189.872 34.88C189.872 36.0747 189.552 37.4187 188.912 38.912C188.272 40.3627 187.205 41.792 185.712 43.2C182.043 46.656 177.008 48.384 170.608 48.384C165.531 48.384 162.075 46.5493 160.24 42.88C159.6 41.6 159.28 39.7653 159.28 37.376C159.28 34.9867 159.749 32.512 160.688 29.952C161.627 27.3493 162.864 25.1093 164.4 23.232C165.979 21.3547 167.792 19.904 169.84 18.88C171.888 17.8133 174.064 17.28 176.368 17.28C178.715 17.28 180.507 17.856 181.744 19.008C183.024 20.16 183.664 21.6533 183.664 23.488C183.664 25.3227 183.195 26.8373 182.256 28.032C181.36 29.184 180.187 30.1653 178.736 30.976C177.285 31.744 175.664 32.448 173.872 33.088C172.123 33.6853 170.395 34.368 168.688 35.136V36.736C168.731 38.272 169.371 39.36 170.608 40C171.845 40.64 173.253 40.9813 174.832 41.024ZM173.744 22.976C171.525 22.976 169.989 25.5573 169.136 30.72C170.032 30.1227 170.864 29.5893 171.632 29.12C172.443 28.6507 173.147 28.2027 173.744 27.776C175.024 26.8373 175.685 25.7707 175.728 24.576C175.728 23.5093 175.067 22.976 173.744 22.976ZM195.182 16.064C196.718 16.064 198.169 17.536 199.534 20.48C201.539 18.3893 204.014 17.344 206.958 17.344C209.945 17.344 212.185 18.0053 213.678 19.328C215.171 20.608 215.918 22.4427 215.918 24.832C215.918 27.1787 215.598 29.568 214.958 32C214.361 34.432 213.913 36.1813 213.614 37.248C213.358 38.272 213.23 39.1253 213.23 39.808C213.23 40.4907 213.465 40.832 213.934 40.832C214.574 40.832 215.363 40.4267 216.302 39.616C217.241 38.8053 218.179 37.9307 219.118 36.992C220.057 36.0107 220.91 35.1147 221.678 34.304C222.489 33.4933 223.043 33.088 223.342 33.088C223.939 33.088 224.238 33.8133 224.238 35.264C224.238 38.2507 222.766 41.1307 219.822 43.904C214.873 46.8053 211.715 48.256 210.35 48.256C210.222 48.256 210.137 48.2347 210.094 48.192C206.681 48.192 204.974 45.4613 204.974 40C204.974 37.6533 205.187 35.4987 205.614 33.536C206.083 31.5733 206.425 30.144 206.638 29.248C206.851 28.352 206.958 27.4347 206.958 26.496C206.958 24.96 206.062 24.192 204.27 24.192C202.521 24.192 200.835 25.5147 199.214 28.16C197.635 30.7627 196.569 33.472 196.014 36.288V36.736C196.014 38.1867 196.227 39.68 196.654 41.216C197.123 42.752 197.358 43.8187 197.358 44.416C197.358 45.8667 195.545 47.296 191.918 48.704C191.363 48.9173 190.873 49.024 190.446 49.024C189.379 49.024 188.633 48.4693 188.206 47.36C187.822 46.2507 187.63 44.5227 187.63 42.176C187.63 36.1173 187.865 31.744 188.334 29.056C188.974 25.0453 190.425 21.312 192.686 17.856C193.454 16.6613 194.286 16.064 195.182 16.064ZM223.861 44.544C223.392 43.392 223.05 42.0693 222.837 40.576C222.624 39.04 222.517 36.9067 222.517 34.176C222.517 31.4453 223.029 27.7547 224.053 23.104H221.173C220.661 23.104 220.405 22.8907 220.405 22.464C220.405 21.44 220.49 20.608 220.661 19.968C220.874 19.2853 221.344 18.5173 222.069 17.664H223.605C224.202 17.664 224.842 17.6427 225.525 17.6C227.573 11.0293 229.664 7.744 231.797 7.744C233.504 7.78667 234.698 8.87467 235.381 11.008C235.552 11.6053 235.744 12.2453 235.957 12.928L233.333 17.536C236.32 17.6213 238.197 17.664 238.965 17.664C239.776 17.664 240.202 17.7493 240.245 17.92C240.33 18.048 240.373 18.2613 240.373 18.56C240.373 19.328 240.181 20.288 239.797 21.44C239.456 22.592 239.05 23.1467 238.581 23.104L232.181 22.784C231.285 27.9893 230.837 32.2987 230.837 35.712C230.837 39.1253 231.328 40.832 232.309 40.832C233.12 40.832 234.592 40.1707 236.725 38.848C238.858 37.4827 240.394 36.1813 241.333 34.944C242.272 33.7067 243.04 33.088 243.637 33.088C244.234 33.088 244.533 33.8133 244.533 35.264C244.533 36.7147 244.021 38.208 242.997 39.744C241.973 41.2373 240.672 42.624 239.093 43.904C237.557 45.1413 235.829 46.1653 233.909 46.976C232.032 47.7867 230.389 48.192 228.981 48.192C227.573 48.192 226.485 47.872 225.717 47.232C224.992 46.5493 224.373 45.6533 223.861 44.544Z" fill="black"/>
</svg>
